<svg xmlns="http://www.w3.org/2000/svg" viewBox="0 0 184.6 184.6"><defs><style>.cls-1{fill:#624b63;}</style></defs><g id="Calque_2" data-name="Calque 2"><g id="Calque_6" data-name="Calque 6"><path class="cls-1" d="M184.6,184.6H0V0H184.6ZM1.64,183H183V1.64H1.64Z"/><path class="cls-1" d="M130.39,48.83l-.24-.07a6.6,6.6,0,0,1,0,1.09c-1.68,9.44-4.29,18.58-9.17,26.92-7,12-16.88,20.16-30.83,23.54-18.19,4.4-30.25,16-36.21,33.76a15.87,15.87,0,0,0-1.1,5.2,3.68,3.68,0,0,0,2.05,2.62c1.38.56,2.6-.31,3.06-1.82.24-.78.27-1.62.52-2.4,1.14-3.54,2.33-7.07,3.61-10.91,1,.76,1.38,1.08,1.77,1.4,10,8.05,21.1,11.77,34.12,9.43,19.7-3.53,31.48-17.23,34.19-34.79,2.69-17.41,1.87-34.95,0-52.42-.29-2.69-.72-5.37-1.06-7.84-5,2.7-9.68,5.45-14.55,7.81-8.71,4.23-18.24,5.21-27.65,6.78-8.62,1.44-16.71,4.48-23.59,10.05C52.83,77.26,48.69,90.36,51.63,105.9A37.59,37.59,0,0,0,56,118.15c.32-.51.45-.77.62-1,7.34-9.81,17.11-16,28.78-19.34,4.36-1.25,9-1.88,13.11-3.57,11.51-4.68,19.21-13.52,24.25-24.54C125.8,63,127.87,55.8,130.39,48.83Z"/></g></g></svg>