<svg xmlns="http://www.w3.org/2000/svg" viewBox="0 0 184.6 184.6"><defs><style>.cls-1{fill:#624b63;}</style></defs><g id="Calque_2" data-name="Calque 2"><g id="Calque_6" data-name="Calque 6"><path class="cls-1" d="M184.6,184.6H0V0H184.6ZM1.64,183H183V1.64H1.64Z"/><path class="cls-1" d="M92.89,147.62c-6.85-.33-13-.49-19.11-1a61.25,61.25,0,0,1-17-3.49c-8.58-3.23-13.47-9.36-14.69-18.46a41.12,41.12,0,0,1,.78-16.31,45.61,45.61,0,0,1,8.57-16.63,51.67,51.67,0,0,1,18.92-14.9l.3-.14c2.06-1,3.93-1.6,6.22-.06s5.35,2,8.22,2.21c5.07.37,10.13.24,15-1.52a30,30,0,0,0,5-2.74,2,2,0,0,1,1.89-.35A54.58,54.58,0,0,1,138.11,99.9a36.79,36.79,0,0,1,4.71,21.91c-.4,4.44-1.28,8.76-3.73,12.61-2.69,4.24-6.63,6.85-11.19,8.63a53.86,53.86,0,0,1-15.48,3.4C105.69,147,98.94,147.27,92.89,147.62ZM93,92.06c0-1,0-2.22,0-3.45,0-.72-.31-1.06-1.05-1-1.17,0-2.33,0-3.49,0-.73,0-1.07.31-1.06,1,0,1,0,2.11,0,3.16,0,.7-.22,1-.88,1.22a17.4,17.4,0,0,0-3.63,1.69,8.85,8.85,0,0,0-1.4,13.48,18.29,18.29,0,0,0,6.13,3.66,42.13,42.13,0,0,1,4.68,2.28,3.05,3.05,0,0,1-.91,5.52,10.11,10.11,0,0,1-4,.33,38.68,38.68,0,0,1-6-1.87c-.84-.31-1.3-.3-1.52.64-.18.78-.43,1.54-.65,2.31-.87,3.06-.89,3.12,2.17,4.1,1.78.57,3.64.91,5.57,1.38,0,1.1,0,2.3,0,3.49,0,1,.41,1.44,1.42,1.4s2,0,3,0,1.41-.32,1.35-1.34,0-2.18,0-3.27c0-.67.24-.9.84-1.13a19.44,19.44,0,0,0,3.92-1.82,9.36,9.36,0,0,0,1.21-14.41,27.12,27.12,0,0,0-5.43-3.32c-1.59-.86-3.29-1.53-4.89-2.37A2.59,2.59,0,0,1,86.84,101a3,3,0,0,1,3-2.42,13.53,13.53,0,0,1,7.5,1.37c1.07.51,1.27.42,1.62-.72s.68-2.45,1.09-3.65c.3-.89.06-1.41-.81-1.67Z"/><path class="cls-1" d="M89,72.81A40.68,40.68,0,0,1,77.84,71a5.6,5.6,0,0,1-3.73-3.34c-1.93-4.81-4-9.56-6-14.33-.26-.6-.57-1.18-.85-1.77-1.36-2.87,0-5.23,3.22-5.37,1.12,0,2.25.11,3.38.08A40,40,0,0,0,78.47,46a5.32,5.32,0,0,0,4.45-3.82A10.8,10.8,0,0,1,84.66,39a4.94,4.94,0,0,1,8,.13,17.82,17.82,0,0,1,1.61,2.7c.27.51.43,1.08.67,1.61.83,1.82,2,2.31,3.87,1.52a27.09,27.09,0,0,0,2.48-1.35,8,8,0,0,1,5-1.16,2.53,2.53,0,0,1,2.42,2.83,7.67,7.67,0,0,1-.74,2.91,43.06,43.06,0,0,0-4.73,15.18,20.59,20.59,0,0,0-.09,3,3.29,3.29,0,0,1-1.63,3.11c-2.89,1.92-6.19,2.58-9.55,3C90.94,72.71,89.85,72.74,89,72.81Z"/></g></g></svg>