<svg xmlns="http://www.w3.org/2000/svg" viewBox="0 0 184.6 184.6"><defs><style>.cls-1{fill:#624b63;}</style></defs><g id="Calque_2" data-name="Calque 2"><g id="Calque_6" data-name="Calque 6"><path class="cls-1" d="M184.6,184.6H0V0H184.6ZM1.64,183H183V1.64H1.64Z"/><path class="cls-1" d="M156.33,115a39.8,39.8,0,0,1-1.81,13.32,20.16,20.16,0,0,1-1.29,3q-3.63,6.66-11.1,5.14c-4.49-.91-8.28-3.27-11.87-5.94-4.95-3.69-9.77-7.56-14.77-11.18s-10.53-6.65-16.76-7.8a35.93,35.93,0,0,0-30.83,8.19c-3.36,2.81-6.48,5.9-9.72,8.85-3.63,3.31-7.47,6.33-12.34,7.59a29.32,29.32,0,0,1-5.67.86,8.69,8.69,0,0,1-8.06-4.14,22.15,22.15,0,0,1-3.32-9.73c-1.35-10.1.09-20,2.51-29.75A94.49,94.49,0,0,1,43.92,63.51c3.6-5.44,7.84-10.28,13.67-13.48a17.42,17.42,0,0,1,8.2-2.44,17.11,17.11,0,0,1,5.7,1C75.41,50,79.2,51.78,83.1,53.24a40.64,40.64,0,0,0,6.25,1.7c4.52.91,8.78-.29,12.93-1.91,3.26-1.28,6.5-2.61,9.69-4.06,5.19-2.38,10.16-1.61,15,.9,5.36,2.78,9.35,7.08,12.78,11.93,6.37,9,10.38,19.07,13.2,29.65A92.19,92.19,0,0,1,156.33,115ZM82.7,80.43A17.46,17.46,0,1,0,65.22,98,17.46,17.46,0,0,0,82.7,80.43Zm29,.07a3.91,3.91,0,0,0-3.94,3.84,4,4,0,0,0,3.9,3.91,3.9,3.9,0,0,0,3.85-3.81A3.83,3.83,0,0,0,111.67,80.5Zm23.5,0a3.89,3.89,0,0,0-3.88,3.89,4,4,0,0,0,4,3.86,3.91,3.91,0,0,0,3.8-3.87A3.83,3.83,0,0,0,135.17,80.5ZM123.55,99.85a3.89,3.89,0,0,0,3.87-3.9,4,4,0,0,0-3.85-3.83A3.89,3.89,0,0,0,119.66,96,3.83,3.83,0,0,0,123.55,99.85Zm0-23.29a3.88,3.88,0,0,0,3.92-3.86,4,4,0,0,0-3.94-3.87,3.89,3.89,0,0,0-3.82,3.83A3.82,3.82,0,0,0,123.5,76.56Z"/><path class="cls-1" d="M74.92,80.48a9.69,9.69,0,1,1-9.68-9.71A9.7,9.7,0,0,1,74.92,80.48Z"/></g></g></svg>