<svg xmlns="http://www.w3.org/2000/svg" viewBox="0 0 184.6 184.6"><defs><style>.cls-1{fill:#624b63;}.cls-2{fill:none;stroke:#624b63;stroke-miterlimit:10;}</style></defs><g id="Calque_2" data-name="Calque 2"><g id="Calque_6" data-name="Calque 6"><path class="cls-1" d="M184.6,184.6H0V0H184.6ZM1.64,183H183V1.64H1.64Z"/><path class="cls-2" d="M153.25,85.34s-3,8.78,1,22.57"/><path class="cls-1" d="M93.08,125.36c.11.36.24.72.36,1.08L29.1,90.57s-4.19-9-.24-21.57l64.58,31.8s-.14.35-.35,1h0a29.6,29.6,0,0,0-.8,2.87c-.22.92-.43,2-.6,3.17-.12.77-.22,1.59-.29,2.46s-.12,1.78-.13,2.73c0,.79,0,1.6,0,2.44s.11,1.74.21,2.65c.08.68.18,1.38.3,2.09h0c.17,1,.38,2,.66,3.08C92.66,124,92.86,124.66,93.08,125.36Z"/><polygon class="cls-1" points="156.43 84.78 95.84 100.19 31.98 68.38 89.38 57.04 156.43 84.78"/><path class="cls-1" d="M157.44,107.65l-64,18.79c-.12-.36-.25-.72-.36-1.08l61.14-18c-.09-.43-.17-.85-.25-1.26Z"/><path class="cls-1" d="M156.43,84.78v1l-2.3.59-61,15.44c.21-.64.35-1,.35-1l2.4-.61Z"/><path class="cls-1" d="M101.89,109.43l3.06-.76s8.51,14.72,17.79,18.21l-3.58.68S114.06,127.3,101.89,109.43Z"/></g></g></svg>