<svg xmlns="http://www.w3.org/2000/svg" viewBox="0 0 184.6 184.6"><defs><style>.cls-1{fill:#624b63;}</style></defs><g id="Calque_2" data-name="Calque 2"><g id="Calque_6" data-name="Calque 6"><path class="cls-1" d="M184.6,184.6H0V0H184.6ZM1.64,183H183V1.64H1.64Z"/><path class="cls-1" d="M98.11,144.91H86.61a10.24,10.24,0,0,0-1.51-.41c-27.44-3.62-47.76-29-45.26-56.54a52.69,52.69,0,0,1,103.53-8.74c.61,2.42,1.07,4.88,1.6,7.33V98.06a5.56,5.56,0,0,0-.38,1.08,52.53,52.53,0,0,1-39.36,44.22C102.88,144,100.49,144.4,98.11,144.91ZM75.48,117.05c5.55-.49,10.73-1,15.9-1.38a2.65,2.65,0,0,0,2.56-1.88c2.08-5.05,4.31-10,6.36-15.1a3.07,3.07,0,0,0-.29-2.51c-3.5-4.9-7.15-9.68-10.67-14.56a2.64,2.64,0,0,0-2.89-1.26c-5.14.75-10.3,1.37-15.43,2.16A2.73,2.73,0,0,0,69.39,84C67.14,89.27,65,94.56,62.86,99.9a3.24,3.24,0,0,0,.24,2.55c2.58,4.11,5.37,8.08,7.93,12.2C72.21,116.56,73.34,118.09,75.48,117.05Zm32.28-56.66v.21c-2.87.13-5.74.18-8.6.45a2.63,2.63,0,0,0-1.85,1.31c-2,4.72-3.93,9.47-5.72,14.27a3.33,3.33,0,0,0,.36,2.7c3.49,4.91,7.15,9.68,10.66,14.58a2.82,2.82,0,0,0,2.9,1.3c5.11-.46,10.23-.79,15.33-1.29a2.45,2.45,0,0,0,1.7-1.27c2-4.65,3.86-9.34,5.68-14.06a2.79,2.79,0,0,0-.2-2.21q-5-7.55-10.13-14.94a3.05,3.05,0,0,0-2.14-1C113.09,60.32,110.43,60.39,107.76,60.39ZM107.6,129c-4.45-3.29-8.72-6.47-13-9.58a3.06,3.06,0,0,0-1.9-.42c-6,.52-12.11,1.06-18.16,1.7a2.46,2.46,0,0,0-1.66,1.29c-1.07,2.73-2,5.51-2.85,8.32a2.54,2.54,0,0,0,.71,2.16c2.29,1.94,4.83,3.6,7.06,5.61,2.84,2.55,6.11,3.13,9.7,2.73,4.41-.5,8.82-1,13.22-1.63a2.71,2.71,0,0,0,1.7-1.13C104.15,135.08,105.81,132.09,107.6,129ZM47.16,102.43c3.6-.74,7-1.35,10.38-2.19a3.56,3.56,0,0,0,2.11-1.77c1.7-3.8,3-7.81,4.87-11.49,2.1-4,2.41-7.8.41-12a77.91,77.91,0,0,1-3.11-9c-3.31.44-6.37.76-9.38,1.31a3.16,3.16,0,0,0-2,1.62C48.23,74.31,46.08,79.7,44,85.11a6.15,6.15,0,0,0-.52,3.37C44.57,93.11,45.89,97.69,47.16,102.43Zm94.49-10.77a28.77,28.77,0,0,0-.41-4.6c-.51-2.31-.9-4.92-2.26-6.69-.83-1.07-3.4-.81-5.18-1.14-.14,0-.28,0-.41,0-1.23-.31-1.82.23-2.27,1.38-1.8,4.64-3.74,9.24-5.52,13.89a6,6,0,0,0-.16,3c.85,4.56,1.91,9.09,2.68,13.67.36,2.12,1.1,3.33,3.43,3.21a8.75,8.75,0,0,1,2.83.37c1.34.39,1.93-.11,2.49-1.3A51.26,51.26,0,0,0,141.65,91.66ZM82.17,50.43c4.48,2.17,8.83,4.33,13.22,6.36a7.88,7.88,0,0,0,3.33.74c5.61-.1,11.21-.32,16.82-.53a2,2,0,0,0,1.4-.5c2.26-3.1,1.58-6-1.77-7.8a48.53,48.53,0,0,0-25.11-5.63c-5.87.25-5.87.31-7.53,6C82.42,49.4,82.33,49.8,82.17,50.43Zm51.76,67.66c-3.22-.5-6.16-1.46-9.15,1.25a102.45,102.45,0,0,1-11.12,8.39c-4.16,2.83-5.21,7.61-8.11,11.51C113.52,139.25,130.54,126.44,133.93,118.09ZM52.17,63.91c2.81-.39,5-.83,7.27-1A9.64,9.64,0,0,0,65,60.57c3.66-2.87,7.27-5.83,11.16-8.37,2.83-1.84,3.31-4.53,4.09-7.6A50.12,50.12,0,0,0,52.17,63.91Zm9.77,67.21,6.31,4.13A6,6,0,0,0,61.94,131.12Z"/></g></g></svg>