<svg xmlns="http://www.w3.org/2000/svg" viewBox="0 0 75.66 92.51"><defs><style>.cls-1{fill:#fcf8e3;}</style></defs><g id="Calque_2" data-name="Calque 2"><g id="Calque_7" data-name="Calque 7"><path class="cls-1" d="M75.65,88.35l-.07-60.52v-1a1.75,1.75,0,0,0-.53-1.26l-.73-.7L62.38,13.19,50,1.18,49.3.49A1.73,1.73,0,0,0,48.09,0H1.74A1.74,1.74,0,0,0,0,1.74v89a1.74,1.74,0,0,0,1.74,1.74H73.92a1.74,1.74,0,0,0,1.74-1.74Zm-26.46-78a1.74,1.74,0,0,1,3-1.25l7.32,7.11,6.72,6.54a1.75,1.75,0,0,1-1.23,3l-14,0a1.74,1.74,0,0,1-1.74-1.74ZM4.17,86.6V5.91A1.74,1.74,0,0,1,5.91,4.17H43.28A1.74,1.74,0,0,1,45,5.91V28.09a1.74,1.74,0,0,0,1.74,1.74l22.91.07a1.75,1.75,0,0,1,1.74,1.74l.07,55a1.75,1.75,0,0,1-1.75,1.75H5.91A1.74,1.74,0,0,1,4.17,86.6Z"/><path class="cls-1" d="M20.91,24.45a1.74,1.74,0,0,1-1.74,1.75H15.49a1.75,1.75,0,0,1-1.75-1.75V21.86a1.75,1.75,0,0,1,1.75-1.74h3.69a1.72,1.72,0,0,1,1.73,1.73Zm4.17,1.75V20.12h0A4.17,4.17,0,0,0,20.91,16H13.74a4.17,4.17,0,0,0-4.16,4.17h0V26.2h0a4.16,4.16,0,0,0,4.16,4.16h7.17a4.17,4.17,0,0,0,4.17-4.16Z"/><rect class="cls-1" x="20.89" y="40.3" width="43.96" height="3.49" rx="1.74"/><rect class="cls-1" x="10.78" y="40.3" width="6.87" height="3.49" rx="1.74"/><rect class="cls-1" x="20.89" y="48.62" width="43.96" height="3.49" rx="1.74"/><rect class="cls-1" x="10.78" y="48.62" width="6.87" height="3.49" rx="1.74"/><rect class="cls-1" x="20.89" y="56.93" width="43.96" height="3.49" rx="1.74"/><rect class="cls-1" x="10.78" y="56.93" width="6.87" height="3.49" rx="1.74"/><rect class="cls-1" x="20.89" y="65.25" width="43.96" height="3.49" rx="1.74"/><rect class="cls-1" x="10.78" y="65.25" width="6.87" height="3.49" rx="1.74"/><rect class="cls-1" x="20.89" y="73.56" width="43.96" height="3.49" rx="1.74"/><rect class="cls-1" x="10.78" y="73.56" width="6.87" height="3.49" rx="1.74"/></g></g></svg>