<svg xmlns="http://www.w3.org/2000/svg" viewBox="0 0 92.46 92.7"><defs><style>.cls-1{fill:#fcf8e3;}</style></defs><g id="Calque_2" data-name="Calque 2"><g id="Calque_7" data-name="Calque 7"><path class="cls-1" d="M87.45,0H5A5,5,0,0,0,0,5V87.68a5,5,0,0,0,5,5H87.45a5,5,0,0,0,5-5V5A5,5,0,0,0,87.45,0ZM34.83,67H25.26V36h9.57ZM30,32a5.72,5.72,0,1,1,5.66-5.72A5.68,5.68,0,0,1,30,32ZM70.69,67H61.16V50.74c0-4.46-1.69-7-5.2-7-3.84,0-5.83,2.6-5.83,7V67H41V36h9.18v4.17a10.77,10.77,0,0,1,9.31-5.12c6.56,0,11.25,4,11.25,12.32Z"/></g></g></svg>