<svg xmlns="http://www.w3.org/2000/svg" viewBox="0 0 292.33 292.33"><defs><style>.cls-1{fill:#fcf8e3;}</style></defs><g id="Calque_2" data-name="Calque 2"><g id="Calque_7" data-name="Calque 7"><path class="cls-1" d="M146.17,292.33,0,146.17,146.17,0,292.33,146.17ZM2,146.17,146.17,290.38,290.38,146.17,146.17,2Z"/><path class="cls-1" d="M122,165.92a38.86,38.86,0,0,0,8.08-2.78l7.67-3.63.37,0,.37.55-.23.51a38,38,0,0,1-17.28,6.75L119,170.43h-6.32l2.34-3.64a39.05,39.05,0,0,1-8-2.64,52.49,52.49,0,0,1-7.06-4.64q-15.75,10.92-28.93,10.92a20.51,20.51,0,0,1-8.82-1.94q-5.11-2.46-5.11-6.67,0-5.32,4-5.33c1.89,0,2.83,1,2.83,3q0,3.61-3.39,3.62a2.41,2.41,0,0,1-1.58-.65q0,3.44,4.65,5.43a20.2,20.2,0,0,0,7.71,1.49q12.65,0,27.74-10.54Q88.56,147.75,88.56,137a18.81,18.81,0,0,1,3.3-11.25A11.86,11.86,0,0,1,102,120.67q12.78,0,19.66,18.63,8.07-7.16,16.12-14.31a138.76,138.76,0,0,1,18.86-14q10.81-6.4,19.56-7-8.22,5.25-27.74,28.81Q148.07,133.18,122,165.92Zm-22-7.94q9.86-8.13,10.55-8.69,5.94-5,10.17-9.15-4.69-17-17.42-17a11.73,11.73,0,0,0-9.67,4.46A16.18,16.18,0,0,0,90.28,138Q90.28,147.72,99.94,158Zm16,7.71a31,31,0,0,0,5.58-17.93,36.6,36.6,0,0,0-.56-6.23q-5.34,5-19.89,17.19A34.38,34.38,0,0,0,115.92,165.69Zm5-6.87q12.63-14.55,25.27-29.13,19.23-21.33,26.2-24.16-10.4,1.95-26.57,14.54-2.59,2-23.88,20.49a52.64,52.64,0,0,1,.79,8.08A30.26,30.26,0,0,1,120.94,158.82Z"/><path class="cls-1" d="M144.59,167.41a7.16,7.16,0,0,1-2.93,3.16,8.08,8.08,0,0,1-2.84-2.93,6.8,6.8,0,0,1,2.93-3.06A8.6,8.6,0,0,1,144.59,167.41Z"/><path class="cls-1" d="M171.1,153c-1.33,1.94-2.51,3.78-3.54,5.49a1,1,0,0,0-.55-.32c.87-1.45,1.83-3,2.9-4.6Z"/><path class="cls-1" d="M167.47,158.65a84.7,84.7,0,0,0-6,11.73l-.65-.22a93.39,93.39,0,0,1,6.11-11.79l0,0h0C167,158.33,167.16,158.35,167.47,158.65Z"/><path class="cls-1" d="M226.33,108.12a14.42,14.42,0,0,1-2.55,3.94,8.71,8.71,0,0,0-1.93,3.3,2.22,2.22,0,0,1-1,1.13l-1.63.93a2.38,2.38,0,0,0-.89.92l-1.68,3.06a2.2,2.2,0,0,1-1.43,1.08l-1.41.33a2.3,2.3,0,0,0-1.52,1.13l-1.25,2.17a2.18,2.18,0,0,1-1.34,1l-1,.26a2.32,2.32,0,0,0-1.31.9l-2.15,3a2.25,2.25,0,0,1-1.23.84l-1.63.43a5.1,5.1,0,0,0-2.24,1.23,82.87,82.87,0,0,1-11.58,9c-6.65,4.24-15.43,9.07-17.21,10.05q1.83-2.67,4-5.54A129.7,129.7,0,0,1,226.33,108.12Z"/><path class="cls-1" d="M226,108a108.34,108.34,0,0,0-30.1,16.83,121,121,0,0,0-20.4,20.61c-2.23,2.85-4.06,5.09-5.76,7.67-.2-.74-1-3.29.33-7.74,1.37-4.72,5.26-12,16-19.75C206.3,111,216.76,107.93,226,108Z"/><polyline class="cls-1" points="171.1 153.01 171.1 153.01 169.91 153.58"/></g></g></svg>