<svg xmlns="http://www.w3.org/2000/svg" viewBox="0 0 155.4 96.3"><defs><style>.cls-1{font-size:84.18px;font-family:Exmouth;}.cls-1,.cls-2{fill:#fcf8e3;}</style></defs><g id="Calque_2" data-name="Calque 2"><g id="Calque_6" data-name="Calque 6"><text class="cls-1" transform="translate(0 71.56)">A.</text><path class="cls-2" d="M106.53,56.1c-1.17,1.72-2.21,3.35-3.13,4.86a.89.89,0,0,0-.49-.29q1.16-1.92,2.57-4.07Z"/><path class="cls-2" d="M103.32,61.09A73.32,73.32,0,0,0,98,71.47l-.58-.19a82.49,82.49,0,0,1,5.41-10.44h0C102.9,60.81,103.05,60.82,103.32,61.09Z"/><path class="cls-2" d="M155.4,16.39a12.84,12.84,0,0,1-2.26,3.48,7.85,7.85,0,0,0-1.7,2.92,2,2,0,0,1-.85,1l-1.44.82a2.22,2.22,0,0,0-.8.81l-1.48,2.71a2,2,0,0,1-1.27,1l-1.25.29a2.09,2.09,0,0,0-1.34,1l-1.1,1.92a1.93,1.93,0,0,1-1.18.91l-.86.23a2.05,2.05,0,0,0-1.16.8l-1.9,2.64a2,2,0,0,1-1.09.75l-1.44.37a4.71,4.71,0,0,0-2,1.09,72.38,72.38,0,0,1-10.25,8c-5.88,3.76-13.65,8-15.23,8.9,1.09-1.57,2.28-3.21,3.59-4.9A114.55,114.55,0,0,1,155.4,16.39Z"/><path class="cls-2" d="M155.14,16.3A95.79,95.79,0,0,0,128.5,31.2a106.71,106.71,0,0,0-18,18.23c-2,2.53-3.59,4.5-5.1,6.78a11.91,11.91,0,0,1,.3-6.84c1.21-4.18,4.65-10.6,14.14-17.48C137.68,18.92,146.93,16.21,155.14,16.3Z"/><polyline class="cls-2" points="106.54 56.1 106.53 56.1 105.48 56.6"/></g></g></svg>