<svg xmlns="http://www.w3.org/2000/svg" viewBox="0 0 422.83 422.83"><defs><style>.cls-1,.cls-4{fill:none;}.cls-1{stroke:#624b63;stroke-miterlimit:10;stroke-width:2px;}.cls-2{font-size:137.62px;font-family:Exmouth;}.cls-2,.cls-3{fill:#624b63;}</style></defs><g id="Calque_2" data-name="Calque 2"><g id="header"><rect class="cls-1" x="62.92" y="62.92" width="296.98" height="296.98" transform="translate(-87.57 211.41) rotate(-45)"/><text class="cls-2" transform="translate(73.32 246.58)">A.</text><path class="cls-3" d="M247.48,221.31c-1.93,2.81-3.63,5.47-5.13,7.94a1.47,1.47,0,0,0-.79-.47c1.26-2.09,2.66-4.32,4.2-6.65Z"/><path class="cls-3" d="M242.22,229.47a120,120,0,0,0-8.72,17l-1-.32a137.9,137.9,0,0,1,8.85-17.06l0,0h0C241.54,229,241.78,229,242.22,229.47Z"/><path class="cls-3" d="M327.36,156.39c-.49,1-2.17,4.43-3.69,5.7-1.28,1.07-2.3,3.44-2.79,4.77a3.21,3.21,0,0,1-1.39,1.63l-2.35,1.35a3.43,3.43,0,0,0-1.3,1.32l-2.43,4.43a3.16,3.16,0,0,1-2.06,1.56l-2,.47a3.43,3.43,0,0,0-2.2,1.64l-1.8,3.14a3.2,3.2,0,0,1-1.94,1.49l-1.39.37a3.43,3.43,0,0,0-1.9,1.31L297,189.9a3.15,3.15,0,0,1-1.78,1.21l-2.35.62a7.43,7.43,0,0,0-3.24,1.78,119.62,119.62,0,0,1-16.76,13c-9.61,6.14-22.31,13.13-24.89,14.54,1.77-2.56,3.72-5.24,5.87-8A187.51,187.51,0,0,1,327.36,156.39Z"/><path class="cls-3" d="M326.93,156.25a156.79,156.79,0,0,0-43.54,24.35,174.28,174.28,0,0,0-29.51,29.81c-3.21,4.13-5.87,7.36-8.33,11.09-.28-1.07-1.38-4.76.49-11.19,2-6.83,7.59-17.33,23.11-28.58C298.39,160.53,313.52,156.11,326.93,156.25Z"/><polyline class="cls-4" points="247.48 221.31 247.48 221.31 245.76 222.13"/></g></g></svg>