<?xml version="1.0" encoding="utf-8"?>
<!-- Generator: Adobe Illustrator 26.3.1, SVG Export Plug-In . SVG Version: 6.00 Build 0)  -->
<svg version="1.1" id="Calque_1" xmlns="http://www.w3.org/2000/svg" xmlns:xlink="http://www.w3.org/1999/xlink" x="0px" y="0px"
	 viewBox="0 0 422.8 422.8" style="enable-background:new 0 0 422.8 422.8;" xml:space="preserve">
<style type="text/css">
	.st0{fill:#624B63;}
	.st1{enable-background:new    ;}
	.st2{fill:none;}
</style>
<g id="Calque_2_00000116919773217044534480000015946923235773167756_">
	<g id="header">
		<g>
			<path class="st0" d="M211.4,422.8L0,211.4L211.4,0l0.7,0.7l210.7,210.7L211.4,422.8z M2.8,211.4L211.4,420L420,211.4L211.4,2.8
				L2.8,211.4z"/>
		</g>
		<g class="st1">
			<path class="st0" d="M176.4,240c3.6-0.8,7.5-2.1,11.7-4c3.7-1.7,7.4-3.5,11.1-5.2l0.5-0.1l0.5,0.8l-0.3,0.7
				c-8,5.5-16.3,8.7-25,9.8l-2.8,4.6H163l3.4-5.3c-4.8-1.1-8.6-2.4-11.6-3.8c-2.6-1.3-6-3.5-10.2-6.7
				c-15.2,10.5-29.1,15.8-41.8,15.8c-4.5,0-8.8-0.9-12.8-2.8c-4.9-2.4-7.4-5.6-7.4-9.6c0-5.1,1.9-7.7,5.7-7.7c2.7,0,4.1,1.4,4.1,4.3
				c0,3.5-1.6,5.2-4.9,5.2c-0.8,0-1.6-0.3-2.3-0.9c0,3.3,2.2,5.9,6.7,7.9c3.5,1.4,7.3,2.2,11.2,2.2c12.2,0,25.6-5.1,40.1-15.3
				c-10.1-10.7-15.2-21.2-15.2-31.5c0-6.4,1.6-11.8,4.8-16.3c3.6-4.9,8.5-7.4,14.6-7.4c12.3,0,21.8,9,28.4,26.9
				c7.8-6.9,15.6-13.8,23.3-20.7c10.3-8.8,19.4-15.6,27.3-20.3c10.4-6.2,19.9-9.5,28.3-10.1c-7.9,5.1-21.3,18.9-40.1,41.7
				C214.3,192.4,201.6,208.4,176.4,240z M144.5,228.5c9.5-7.8,14.6-12,15.3-12.6c5.7-4.8,10.6-9.2,14.7-13.2
				c-4.5-16.4-12.9-24.6-25.2-24.6c-5.9,0-10.5,2.2-14,6.5c-3.2,4-4.8,9-4.8,15.1C130.6,209,135.2,218.6,144.5,228.5z M167.7,239.7
				c5.4-7.8,8.1-16.5,8.1-25.9c0-2.9-0.3-5.9-0.8-9c-5.2,4.8-14.7,13.1-28.8,24.9C152.8,234.8,160,238.2,167.7,239.7z M174.9,229.7
				c12.2-14,24.4-28.1,36.6-42.1c18.5-20.6,31.2-32.2,37.9-34.9c-10,1.9-22.8,8.9-38.4,21c-2.5,1.9-14,11.8-34.5,29.6
				c0.8,4.7,1.1,8.6,1.1,11.7C177.5,219.9,176.7,224.8,174.9,229.7z"/>
			<path class="st0" d="M209.1,242.1c-0.7,1.7-2.1,3.2-4.2,4.6c-1.7-1-3-2.4-4.1-4.2c0.9-1.8,2.3-3.3,4.2-4.4
				C206.3,238.7,207.6,240,209.1,242.1z"/>
		</g>
		<g>
			<path class="st0" d="M247.5,221.3c-1.9,2.8-3.6,5.5-5.1,7.9c-0.2-0.2-0.5-0.4-0.8-0.5c1.3-2.1,2.7-4.3,4.2-6.6L247.5,221.3z"/>
		</g>
		<g>
			<path class="st0" d="M242.2,229.5c-3.4,5.4-6.3,11.1-8.7,17l-1-0.3c2.5-5.9,5.5-11.6,8.9-17.1l0,0l0,0
				C241.5,229,241.8,229,242.2,229.5z"/>
		</g>
		<g>
			<path class="st0" d="M327.4,156.4c-0.5,1-2.2,4.4-3.7,5.7c-1.3,1.1-2.3,3.4-2.8,4.8c-0.3,0.7-0.8,1.3-1.4,1.6l-2.4,1.4
				c-0.5,0.3-1,0.8-1.3,1.3l-2.4,4.4c-0.4,0.8-1.2,1.4-2.1,1.6l-2,0.5c-0.9,0.2-1.7,0.8-2.2,1.6l-1.8,3.1c-0.4,0.7-1.1,1.3-1.9,1.5
				l-1.4,0.4c-0.8,0.2-1.4,0.7-1.9,1.3l-3.1,4.3c-0.4,0.6-1.1,1-1.8,1.2l-2.4,0.6c-1.2,0.3-2.3,0.9-3.2,1.8
				c-5.2,4.8-10.8,9.2-16.8,13c-9.6,6.1-22.3,13.1-24.9,14.5c1.8-2.6,3.7-5.2,5.9-8C273.2,188.3,298.5,168.8,327.4,156.4z"/>
		</g>
		<g>
			<path class="st0" d="M326.9,156.2c-15.7,5.7-30.4,14-43.5,24.4c-11,8.7-20.9,18.7-29.5,29.8c-3.2,4.1-5.9,7.4-8.3,11.1
				c-0.3-1.1-1.4-4.8,0.5-11.2c2-6.8,7.6-17.3,23.1-28.6C298.4,160.5,313.5,156.1,326.9,156.2z"/>
		</g>
		<g>
			<polyline class="st2" points="247.5,221.3 247.5,221.3 245.8,222.1 			"/>
		</g>
	</g>
</g>
</svg>
