<?xml version="1.0" encoding="utf-8"?>
<!-- Generator: Adobe Illustrator 26.3.1, SVG Export Plug-In . SVG Version: 6.00 Build 0)  -->
<svg version="1.1" id="Calque_1" xmlns="http://www.w3.org/2000/svg" xmlns:xlink="http://www.w3.org/1999/xlink" x="0px" y="0px"
	 viewBox="0 0 155.4 96.3" style="enable-background:new 0 0 155.4 96.3;" xml:space="preserve">
<style type="text/css">
	.st0{enable-background:new    ;}
	.st1{fill:#FCF8E3;}
</style>
<g id="Calque_2_00000003801099269095157590000006340171478856701086_">
	<g id="Calque_6">
		<g class="st0">
			<path class="st1" d="M63.1,67.5c2.2-0.5,4.6-1.3,7.2-2.5c2.2-1.1,4.5-2.1,6.8-3.2l0.3,0l0.3,0.5l-0.2,0.5c-4.9,3.4-10,5.3-15.3,6
				l-1.7,2.8h-5.6l2.1-3.2c-2.9-0.7-5.3-1.5-7.1-2.3c-1.6-0.8-3.6-2.2-6.2-4.1c-9.3,6.4-17.8,9.7-25.6,9.7c-2.8,0-5.4-0.6-7.8-1.7
				c-3-1.4-4.5-3.4-4.5-5.9c0-3.1,1.2-4.7,3.5-4.7c1.7,0,2.5,0.9,2.5,2.6c0,2.1-1,3.2-3,3.2c-0.5,0-1-0.2-1.4-0.6
				c0,2,1.3,3.6,4.1,4.8c2.2,0.9,4.4,1.3,6.8,1.3c7.5,0,15.6-3.1,24.5-9.3c-6.2-6.5-9.3-12.9-9.3-19.3c0-3.9,1-7.2,2.9-9.9
				c2.2-3,5.2-4.5,9-4.5c7.5,0,13.3,5.5,17.4,16.5c4.8-4.2,9.5-8.4,14.3-12.7c6.3-5.4,11.8-9.5,16.7-12.4c6.4-3.8,12.2-5.8,17.3-6.2
				c-4.9,3.1-13,11.6-24.5,25.5C86.3,38.4,78.5,48.2,63.1,67.5z M43.6,60.5c5.8-4.8,8.9-7.4,9.3-7.7c3.5-3,6.5-5.7,9-8.1
				c-2.8-10-7.9-15-15.4-15c-3.6,0-6.4,1.3-8.5,3.9C36,36.1,35,39.1,35,42.8C35,48.6,37.9,54.4,43.6,60.5z M57.7,67.3
				c3.3-4.8,4.9-10.1,4.9-15.9c0-1.8-0.2-3.6-0.5-5.5c-3.2,2.9-9,8-17.6,15.2C48.6,64.4,53,66.4,57.7,67.3z M62.1,61.2
				c7.5-8.6,14.9-17.2,22.4-25.8c11.3-12.6,19.1-19.7,23.2-21.4c-6.1,1.2-14,5.4-23.5,12.9c-1.5,1.2-8.6,7.2-21.1,18.1
				c0.5,2.9,0.7,5.3,0.7,7.2C63.8,55.2,63.2,58.2,62.1,61.2z"/>
			<path class="st1" d="M83.1,68.8c-0.4,1-1.3,1.9-2.6,2.8c-1-0.6-1.8-1.5-2.5-2.6c0.5-1.1,1.4-2,2.6-2.7
				C81.3,66.7,82.2,67.6,83.1,68.8z"/>
		</g>
		<g>
			<path class="st1" d="M106.5,56.1c-1.2,1.7-2.2,3.3-3.1,4.9c-0.1-0.1-0.3-0.2-0.5-0.3c0.8-1.3,1.6-2.6,2.6-4.1L106.5,56.1z"/>
		</g>
		<g>
			<path class="st1" d="M103.3,61.1c-2,3.3-3.8,6.8-5.3,10.4l-0.6-0.2c1.6-3.6,3.4-7.1,5.4-10.4l0,0
				C102.9,60.8,103.1,60.8,103.3,61.1z"/>
		</g>
		<g>
			<path class="st1" d="M155.4,16.4c-0.6,1.3-1.3,2.5-2.3,3.5c-0.8,0.8-1.4,1.8-1.7,2.9c-0.2,0.4-0.5,0.8-0.9,1l-1.4,0.8
				c-0.3,0.2-0.6,0.5-0.8,0.8l-1.5,2.7c-0.3,0.5-0.7,0.9-1.3,1l-1.2,0.3c-0.6,0.1-1.1,0.5-1.3,1l-1.1,1.9c-0.3,0.4-0.7,0.8-1.2,0.9
				l-0.9,0.2c-0.5,0.1-0.9,0.4-1.2,0.8l-1.9,2.6c-0.3,0.4-0.7,0.6-1.1,0.8l-1.4,0.4c-0.7,0.2-1.4,0.6-2,1.1c-3.2,3-6.6,5.6-10.2,8
				c-5.9,3.8-13.7,8-15.2,8.9c1.1-1.6,2.3-3.2,3.6-4.9C122.2,36,137.7,24,155.4,16.4z"/>
		</g>
		<g>
			<path class="st1" d="M155.1,16.3c-9.6,3.5-18.6,8.5-26.6,14.9c-6.7,5.3-12.8,11.5-18,18.2c-2,2.5-3.6,4.5-5.1,6.8
				c-0.6-2.3-0.5-4.6,0.3-6.8c1.2-4.2,4.7-10.6,14.1-17.5C137.7,18.9,146.9,16.2,155.1,16.3z"/>
		</g>
		<g>
			<polyline class="st1" points="106.5,56.1 106.5,56.1 105.5,56.6 			"/>
		</g>
	</g>
</g>
</svg>
